<svg width="1163" height="15" viewBox="0 0 1163 15" fill="none" xmlns="http://www.w3.org/2000/svg">
<path d="M4 11C49.9226 11 95.7356 9.6 141.79 9.6C164.742 9.6 186.63 11 209.306 11C237.217 11 263.871 9.4306 291.612 6.48889C312.798 4.24226 333.714 4 355.117 4C366.176 4 400.286 5.97817 411.296 6.48889C419.679 6.87776 440.95 8.60666 449.839 9.6C460.943 10.8409 471.746 11 478.451 11C508.88 11 539.201 10.7763 569.53 9.6C618.842 7.68754 668.879 8.2 718.517 8.2C745.813 8.2 762.747 8.2 790.044 8.2C796.583 8.2 820.322 11 827.349 11C840.384 11 844.942 11 857.978 11C882.318 11 906.318 5.4 930.507 5.4C961.09 5.4 991.673 5.4 1022.26 5.4C1047.17 5.4 1071.79 6.8 1096.71 6.8C1112.92 6.8 1142.76 6.8 1159 6.8" stroke="#FD4525" stroke-width="8" stroke-linecap="round"/>
</svg>
